<?xml version="1.0" encoding="UTF-8"?>
<!-- This file is generated by npm run build:icons -->
<svg xmlns="http://www.w3.org/2000/svg" xmlns:xlink="http://www.w3.org/1999/xlink" width="0" height="0">
<defs>
<symbol viewBox="0 0 24 24" fill="currentColor" id="tabler/shopping-cart-filled">
  <path d="M6 2a1 1 0 0 1 .993 .883l.007 .117v1.068l13.071 .935a1 1 0 0 1 .929 1.024l-.01 .114l-1 7a1 1 0 0 1 -.877 .853l-.113 .006h-12v2h10a3 3 0 1 1 -2.995 3.176l-.005 -.176l.005 -.176c.017 -.288 .074 -.564 .166 -.824h-5.342a3 3 0 1 1 -5.824 1.176l-.005 -.176l.005 -.176a3.002 3.002 0 0 1 1.995 -2.654v-12.17h-1a1 1 0 0 1 -.993 -.883l-.007 -.117a1 1 0 0 1 .883 -.993l.117 -.007h2zm0 16a1 1 0 1 0 0 2a1 1 0 0 0 0 -2zm11 0a1 1 0 1 0 0 2a1 1 0 0 0 0 -2z" ></path>
</symbol>
<symbol viewBox="0 0 24 24" fill="currentColor" id="tabler/user-filled">
  <path d="M12 2a5 5 0 1 1 -5 5l.005 -.217a5 5 0 0 1 4.995 -4.783z" ></path>
  <path d="M14 14a5 5 0 0 1 5 5v1a2 2 0 0 1 -2 2h-10a2 2 0 0 1 -2 -2v-1a5 5 0 0 1 5 -5h4z" ></path>
</symbol>
</defs>
</svg>
